<svg xmlns="http://www.w3.org/2000/svg" viewBox="0 0 512 512" width="512" height="512">
  <!-- Full background (maskable icons need full bleed) -->
  <rect x="0" y="0" width="512" height="512" fill="#0ea5e9"/>

  <!-- White heart shape, centered with safe zone padding (10% on each side) -->
  <!-- Safe zone is ~51px padding, so heart is centered in remaining area -->
  <path
    d="M256 380c-8 0-16-3-22-9l-96-96C120 257 110 235 110 210c0-50 40-90 90-90 24 0 44 8 56 16 12-8 32-16 56-16 50 0 90 40 90 90 0 25-10 47-28 65l-96 96c-6 6-14 9-22 9z"
    fill="white"
    stroke="none"
  />
</svg>
